<svg width="278" height="75" viewBox="0 0 278 75" fill="none" xmlns="http://www.w3.org/2000/svg">
<path d="M0 0.219727H82.33C87.04 0.219727 90.94 1.05973 94.03 2.74973C97.12 4.42973 99.46 6.59973 101.04 9.24973C102.62 11.8997 103.41 14.6798 103.41 17.5898C103.41 20.4998 102.6 23.3297 100.98 26.0697C99.36 28.8197 96.97 31.0497 93.81 32.7697C90.65 34.4897 86.71 35.3497 82 35.3497C81.93 35.3497 81.93 35.3797 82 35.4497C87.69 35.4497 92.4 36.4097 96.13 38.3297C99.85 40.2497 102.63 42.6997 104.46 45.6697C106.29 48.6497 107.2 51.7897 107.2 55.0997C107.2 57.5497 106.69 59.9297 105.67 62.2397C104.65 64.5597 103.12 66.6597 101.08 68.5397C99.04 70.4297 96.51 71.9097 93.49 72.9997C90.47 74.0897 86.96 74.6397 82.95 74.6397H0V0.219727ZM41.58 21.0597C41.49 21.0597 41.44 21.1097 41.44 21.2097V34.6297C41.44 34.7397 41.49 34.7797 41.58 34.7797C47.18 34.7897 52.77 34.7997 58.37 34.8097C63.51 34.7997 67.67 31.5597 67.53 27.7597C67.39 24.0197 63.16 20.9898 58.11 21.0898C52.6 21.0798 47.09 21.0697 41.59 21.0497L41.58 21.0597ZM41.58 39.8597C41.49 39.8597 41.45 39.9097 41.45 40.0097V53.4297C41.45 53.5397 41.5 53.5797 41.58 53.5797C47.04 53.5897 52.51 53.5997 57.97 53.6097C62.99 53.5997 67.05 50.3597 66.91 46.5597C66.78 42.8197 62.64 39.7897 57.71 39.8897C52.33 39.8797 46.95 39.8697 41.57 39.8497L41.58 39.8597Z" fill="black"/>
<path d="M197.13 50.18C191.13 47.82 184.04 46.1 176.26 45.17V44.77H184.06C189.03 44.77 193.38 44.14 197.13 42.9V21.68H214.1C214.09 18.07 213.07 14.6399 211.04 11.3799C209 8.10994 205.94 5.41997 201.87 3.33997C197.79 1.25997 192.66 0.209961 186.48 0.209961H110.26V74.6299H154.01V48.24C150.66 46.7 147.7 45.8999 146.48 45.5699C142.14 44.3899 138.59 44.0599 138.9 44.0699C145.12 44.1099 150.09 44.14 154.01 44.17V30.59C154.01 30.53 154.02 30.49 154.06 30.49C154.09 30.49 154.15 30.46 154.22 30.39H166.24C168.14 30.39 169.72 30.7199 170.98 31.3799C172.25 32.0399 173.19 32.9 173.83 33.96C174.46 35.02 174.78 36.14 174.78 37.33C174.78 38.19 174.6 39.03 174.25 39.86C173.9 40.69 173.37 41.43 172.67 42.09C171.97 42.75 171.07 43.28 169.98 43.68C168.55 44.2 167.28 44.2799 166.61 44.2799C166.42 44.2799 166.27 44.2799 166.23 44.2799C165.48 44.2599 161.88 44.22 154 44.17V48.2499C159.13 50.5999 165.17 54.67 167.26 61.39C167.85 63.28 168.94 68 166.33 74.65H216.41C216.99 72.04 216.91 69.81 216.51 67.92C215.3 62.16 210.62 57.1199 203.54 53.1899H197.11V50.1899L197.13 50.18Z" fill="black"/>
<path d="M154.02 44.1703C150.1 44.1403 145.13 44.1103 138.91 44.0703C138.6 44.0703 142.15 44.4003 146.49 45.5703C147.7 45.9003 150.67 46.7103 154.02 48.2403V44.1603V44.1703Z" fill="black"/>
<path d="M253.96 0H220.29V21.68H253.96V0Z" fill="#FED02D"/>
<path d="M214.11 21.6802C214.11 21.6802 214.11 21.7302 214.11 21.7502C214.11 25.5202 213 29.1802 210.79 32.7202C208.58 36.2602 205.23 39.1502 200.77 41.4002C199.63 41.9702 198.41 42.4702 197.13 42.9002V50.1802C199.44 51.0902 201.59 52.0902 203.56 53.1802H220.29V21.6802H214.11Z" fill="#FD5E29"/>
<path d="M253.96 53.1797H220.29V74.8597H253.96V53.1797Z" fill="#0470DD"/>
<path d="M253.96 21.6797H220.29V53.1797H253.96V21.6797Z" fill="#0D4C1E"/>
<path d="M277.12 21.6802H253.96V53.1802H277.12V21.6802Z" fill="#FA8EDF"/>
</svg>
