<svg width="280" height="38" viewBox="0 0 280 38" fill="none" xmlns="http://www.w3.org/2000/svg">
<path d="M104 10.0133C103.418 12.1888 102.847 14.3643 102.265 16.5265C101.683 18.6888 101.112 20.851 100.553 23C99.9938 25.149 99.4116 27.3112 98.841 29.4735C98.2588 31.6357 97.6881 33.8112 97.106 36H79.894C79.4374 34.2622 78.9809 32.5378 78.5243 30.8C78.0677 29.0622 77.6112 27.3378 77.1546 25.6C76.6981 23.8622 76.2301 22.1378 75.7621 20.4C75.2942 18.6622 74.8262 16.9378 74.3697 15.2C73.9131 13.4755 73.4566 11.7378 73 10H86.2401C86.3884 10.9816 86.5254 11.95 86.651 12.9184C86.7879 13.8867 86.9249 14.8551 87.0619 15.8367C87.1988 16.8184 87.3472 17.7867 87.4728 18.7684C87.6097 19.75 87.7467 20.7184 87.8837 21.7C88.032 22.6816 88.169 23.65 88.2945 24.6184C88.4201 25.5867 88.5685 26.5551 88.7054 27.5367C88.7283 27.6826 88.7511 27.7888 88.7625 27.8551C88.7739 27.9214 88.7967 27.9612 88.8196 27.9612C88.8424 27.9612 88.8652 27.9214 88.8766 27.8551C88.8881 27.7888 88.9109 27.6826 88.9337 27.5367C89.0821 26.5551 89.2191 25.5867 89.3446 24.6184C89.4702 23.65 89.6186 22.6816 89.7555 21.7C89.9039 20.7184 90.0409 19.75 90.1664 18.7684C90.292 17.7867 90.4404 16.8184 90.5773 15.8367C90.7257 14.8551 90.8627 13.8867 90.9882 12.9184C91.1252 11.95 91.2622 10.9816 91.3991 10H103.954L104 10.0133Z" fill="black"/>
<path d="M42.9887 2.02771V35.2535H29.249V16.8212C29.249 16.8212 29.249 16.7792 29.2265 16.7792H29.1927C29.1927 16.7792 29.1701 16.7932 29.1701 16.8212L25.676 35.2535H16.5801C15.9827 32.1884 15.4079 29.1234 14.833 26.0863C14.2582 23.0492 13.6834 19.9982 13.086 16.9611C13.086 16.9331 13.0747 16.9191 13.0522 16.9191C13.0296 16.9191 13.0183 16.9331 13.0183 16.9611C13.0183 19.9982 12.9845 23.0492 13.0183 26.0863C13.0522 29.1654 11.6771 31.8805 10.6627 33.1961C7.16855 37.7447 0.495937 35.4354 0 35.2535V2.02771H19.0147C19.3754 3.86114 19.7135 5.68058 20.0516 7.50002C20.3785 9.31946 20.7279 11.1389 21.0661 12.9723C21.4155 14.8058 21.7536 16.6392 22.0805 18.4726C22.0805 18.5006 22.0805 18.5286 22.103 18.5426C22.1143 18.5566 22.1256 18.5566 22.1368 18.5426C22.1481 18.5286 22.1594 18.5006 22.1594 18.4726C22.1143 17.381 21.9114 9.66936 26.6904 4.323C30.951 -0.421538 37.432 -1.37324 43 2.02771H42.9887Z" fill="black"/>
<path d="M59.4403 36.962C58.0149 36.962 56.6439 36.8241 55.3056 36.586C53.9781 36.3353 52.7377 35.9718 51.5952 35.4704C50.4528 34.969 49.4082 34.3548 48.4725 33.6028C47.5367 32.8633 46.7315 31.9859 46.0678 30.9956C45.4041 29.9929 44.8927 28.8773 44.5336 27.6114C44.1746 26.3454 43.9896 24.9541 44.0005 23.4249C44.0005 21.6325 44.2725 20.0031 44.7948 18.5741C45.317 17.1327 46.0569 15.8793 47.0144 14.8013C47.9719 13.7234 49.0927 12.8209 50.3875 12.1064C51.6714 11.392 53.0968 10.853 54.6527 10.502C56.2087 10.1511 57.8408 9.98814 59.56 10.0007C61.7144 10.0007 63.7273 10.314 65.5988 10.8906C67.4703 11.4672 69.1024 12.3321 70.5169 13.4601C71.9205 14.5882 73.0304 16.0046 73.8247 17.7093C74.619 19.4014 75.0107 21.3818 74.9998 23.6255C74.9889 25.8691 74.5754 27.837 73.7702 29.5166C72.9542 31.1962 71.8444 32.5875 70.4299 33.7031C69.0154 34.8186 67.3724 35.6459 65.49 36.1974C63.6185 36.7364 61.5947 37.0121 59.4403 36.9996V36.962ZM59.5164 26.4457C60.9418 26.4457 61.9537 26.1449 62.5522 25.5056C63.1506 24.8664 63.4553 24.1895 63.4553 23.45C63.4553 23.1116 63.39 22.7606 63.2485 22.4222C63.1071 22.0837 62.9004 21.7579 62.5957 21.4696C62.3019 21.1813 61.8993 20.9431 61.3988 20.7676C60.8983 20.5922 60.2781 20.5044 59.5382 20.5044C58.7983 20.5044 58.1781 20.5796 57.6558 20.7551C57.1444 20.9306 56.7201 21.1562 56.4154 21.4445C56.0999 21.7328 55.8823 22.0461 55.7408 22.3971C55.5994 22.7481 55.5341 23.099 55.5341 23.4625C55.5341 23.826 55.5994 24.2021 55.7299 24.553C55.8605 24.904 56.089 25.2299 56.4154 25.5056C56.731 25.7814 57.1444 26.0195 57.6558 26.1825C58.1563 26.3579 58.7766 26.4457 59.5164 26.4457Z" fill="black"/>
<path d="M105 22.0703V11.2544C110.611 8.92224 115.328 10.0442 116.598 12.9562C117.309 14.5823 117.072 17.0405 115.92 18.2633C114.208 20.066 110.245 19.3979 106.723 15.427C106.992 16.2589 107.983 18.9819 110.557 20.7593C113.346 22.7006 116.092 22.209 116.803 22.0703H105.011H105ZM105 36V22.0703H116.792V36H105Z" fill="black"/>
<path d="M118 36V10.8967H130.726V36H118ZM134.643 36V29.6059C134.643 28.0585 134.759 26.4472 134.643 23.2118C134.631 22.8281 134.596 22.0736 134.108 21.5493C133.469 20.8715 132.307 20.8843 131.493 21.2296C131.156 21.3703 130.9 21.5621 130.738 21.7155C130.587 20.7948 130.308 18.365 131.389 15.6411C132.4 13.1346 134.027 11.7535 134.736 11.2164C135.828 10.6537 137.479 10.0399 139.489 10.0015C140.93 9.97593 142.011 10.2828 142.43 10.4107C143.359 10.6793 144.208 11.1013 144.951 11.664C145.695 12.2267 146.288 12.9812 146.718 13.9147C147.148 14.8483 147.357 15.9608 147.357 17.2524V36H134.631H134.643ZM151.262 36V23.2118C151.262 22.4317 151.088 21.8818 150.728 21.5493C150.367 21.2296 149.949 21.0505 149.461 21.025C148.973 20.9994 148.519 21.0633 148.113 21.2296C147.706 21.3958 147.462 21.5493 147.357 21.7155C146.974 16.9711 148.368 12.687 151.088 11.0629C152.796 10.0527 155.179 10.0143 155.818 10.0143C157.852 9.98872 159.258 10.5258 159.816 10.7432C161.06 11.2292 162.059 11.9965 162.838 13.0451C163.616 14.0937 164 15.5005 164 17.2524V36H151.274H151.262Z" fill="black"/>
<path d="M197 35.9872V10.8712H209.576V35.9872H197ZM213.435 35.9872V23.1925C213.435 22.412 213.263 21.8619 212.907 21.5292C212.551 21.2093 212.137 21.0302 211.655 21.0046C211.173 20.979 210.725 21.043 210.323 21.2093C209.921 21.3757 209.668 21.5292 209.576 21.6955C209.404 20.5056 209.105 17.5245 210.518 14.6201C210.84 13.9548 211.471 12.6881 212.758 11.6389C213.803 10.7945 214.802 10.4746 215.284 10.3211C216.421 9.96281 217.329 10.0012 218.225 10.0012C219.58 10.0012 220.843 10.2443 222.026 10.7305C223.198 11.2167 224.162 11.9844 224.897 13.0335C225.632 14.0827 226 15.4901 226 17.243V36H213.424L213.435 35.9872Z" fill="black"/>
<path d="M227.068 24.7294C227.068 21.9177 226.915 20.1979 227.068 16.9085C227.173 14.5881 227.29 11.2304 227.267 7.0811C231.4 5.71619 235.533 4.36491 239.666 3C239.725 5.97551 239.737 8.29587 239.737 9.90647V20.7575C239.737 21.3035 239.842 21.7812 240.053 22.177C240.264 22.5729 240.556 22.9141 240.943 23.1871C241.329 23.4601 241.774 23.6648 242.301 23.8149C242.828 23.9651 243.402 24.0333 244.046 24.0333C244.76 24.0333 245.497 23.9105 246.235 23.6511C246.973 23.3918 247.652 23.0369 248.261 22.5729C248.87 22.1088 249.303 21.5765 249.572 20.9759V34.1064C248.507 35.0891 247.137 35.8125 245.462 36.2902C243.788 36.768 242.102 37 240.427 37C237.887 37 235.603 36.5223 233.59 35.5532C231.576 34.5841 229.983 33.1919 228.824 31.3629C227.665 29.5339 227.079 27.3228 227.079 24.7294H227.068ZM239.772 20.9623C240.065 19.6383 240.357 18.328 240.638 17.0313C240.919 15.7346 241.2 14.438 241.493 13.1277C241.774 11.8173 242.055 10.507 242.324 9.22401C242.594 9.08752 245.931 7.36773 248.483 9.31956C251.118 11.326 252.019 16.5536 249.549 20.9896H239.76L239.772 20.9623Z" fill="black"/>
<path d="M265.561 37C264.227 37 262.934 36.8996 261.692 36.6736C260.439 36.4477 259.278 36.0837 258.209 35.6067C257.13 35.1297 256.152 34.5147 255.266 33.7741C254.381 33.0335 253.627 32.18 252.996 31.1884C252.364 30.1968 251.876 29.0796 251.529 27.8244C251.183 26.5692 251 25.1759 251 23.632C251 21.837 251.224 20.2053 251.703 18.7618C252.181 17.3183 252.863 16.0505 253.749 14.9585C254.635 13.8665 255.684 12.9502 256.875 12.2221C258.077 11.4816 259.401 10.9293 260.846 10.5653C262.292 10.2012 263.83 10.013 265.439 10.0004C267.455 9.98786 269.349 10.264 271.1 10.8163C272.852 11.3686 274.399 12.2096 275.723 13.3267C277.047 14.4439 278.096 15.8497 278.849 17.5317C279.613 19.2262 279.99 21.1969 280 23.4437C280.01 25.6905 279.643 27.6612 278.9 29.3558C278.157 31.0378 277.128 32.4561 275.805 33.5858C274.491 34.7155 272.954 35.5691 271.202 36.1339C269.451 36.6987 267.567 36.9874 265.551 37H265.561ZM265.541 26.4688C266.875 26.4688 267.811 26.1299 268.371 25.4897C268.931 24.8496 269.206 24.1592 269.196 23.4186C269.196 23.0797 269.125 22.7283 269.003 22.3893C268.87 22.0504 268.667 21.7241 268.382 21.4354C268.096 21.1467 267.72 20.9207 267.251 20.745C266.773 20.5818 266.192 20.494 265.51 20.494C264.828 20.494 264.237 20.5944 263.759 20.7701C263.28 20.9459 262.893 21.1843 262.598 21.473C262.313 21.7617 262.099 22.0881 261.977 22.427C261.855 22.7659 261.783 23.1299 261.793 23.5065C261.804 23.883 261.865 24.2471 261.987 24.5985C262.109 24.95 262.333 25.2763 262.639 25.5525C262.944 25.8286 263.331 26.0546 263.799 26.2177C264.278 26.3935 264.858 26.4688 265.541 26.4688Z" fill="black"/>
<path d="M180.596 26.5037C181.825 26.5223 182.79 26.2674 183.46 25.7723C184.13 25.2772 184.477 24.5752 184.5 23.6999L195.388 27.9394C194.989 29.6173 194.091 31.153 192.724 32.5133C191.357 33.8735 189.637 34.959 187.563 35.736C185.49 36.513 183.15 36.8819 180.574 36.843C178.378 36.8099 176.327 36.5095 174.391 35.9078C172.485 35.3064 170.811 34.4392 169.339 33.2719C167.898 32.105 166.747 30.6395 165.916 28.9093C165.085 27.1791 164.662 25.1519 164.647 22.8615C164.633 20.5711 165.03 18.5563 165.838 16.8508C166.647 15.1454 167.779 13.7143 169.207 12.5907C170.634 11.4671 172.326 10.6507 174.226 10.1068C176.125 9.56286 178.202 9.32476 180.368 9.35745C182.535 9.39013 184.644 9.69139 186.492 10.2918C188.37 10.8927 189.956 11.7923 191.31 12.9578C192.665 14.1571 193.728 15.655 194.472 17.4512C195.215 19.2475 195.609 21.3752 195.625 23.834L176.449 23.5447C176.452 23.9826 176.542 24.3545 176.749 24.7281C176.927 25.0675 177.193 25.3747 177.546 25.6494C177.899 25.9242 178.31 26.0988 178.808 26.241C179.307 26.3833 179.893 26.4595 180.537 26.4692L180.596 26.5037ZM180.493 19.5979C179.351 19.5807 178.386 19.8019 177.657 20.2624C176.929 20.7229 176.552 21.3908 176.558 22.2329L176.558 22.3002L184.433 22.4191L184.463 22.4195L184.462 22.3521C184.459 21.9143 184.369 21.5424 184.162 21.2025C183.955 20.8626 183.69 20.5892 183.337 20.3481C182.984 20.107 182.573 19.9324 182.075 19.7902C181.605 19.6484 181.078 19.6067 180.522 19.5983L180.493 19.5979Z" fill="black"/>
</svg>
